
<?xml version="1.0" encoding="UTF-8" ?>
<!DOCTYPE svg PUBLIC "-//W3C//DTD SVG 1.1//EN" "http://www.w3.org/Graphics/SVG/1.1/DTD/svg11.dtd">
<svg width="1170pt" height="827pt" viewBox="0 0 1170 827" version="1.1" xmlns="http://www.w3.org/2000/svg">
<g id="#c3254fff">
<path fill="#c3254f" opacity="1.00" d=" M 58.84 244.83 C 269.56 217.24 480.28 189.64 691.00 162.05 C 698.34 161.48 705.74 161.96 713.02 163.05 C 718.36 164.00 723.88 165.20 728.42 168.35 C 738.53 174.76 747.19 183.08 756.49 190.56 C 844.66 264.06 932.87 337.51 1021.01 411.04 C 1026.15 415.85 1032.38 419.80 1035.94 426.07 C 1043.04 437.70 1042.61 453.44 1034.71 464.57 C 1031.03 469.55 1026.64 473.95 1022.36 478.40 C 1003.68 497.72 984.99 517.02 966.34 536.36 C 958.75 544.34 948.87 549.77 938.60 553.49 C 924.61 558.62 909.71 560.50 894.91 561.29 C 803.89 561.39 712.87 561.12 621.85 561.20 C 620.06 561.19 618.28 561.16 616.51 561.10 C 697.49 545.81 778.55 530.89 859.57 515.76 C 866.77 514.45 874.66 513.39 880.34 508.32 C 890.89 497.54 901.13 486.46 911.86 475.85 C 918.65 468.96 922.89 459.60 923.51 449.94 C 924.42 437.87 919.66 425.47 910.76 417.25 C 901.95 409.72 893.13 402.19 884.19 394.81 C 819.12 340.57 754.04 286.33 688.97 232.09 C 683.46 227.33 677.63 222.82 671.10 219.56 C 660.95 215.53 649.78 215.09 638.99 215.33 C 449.99 225.55 260.99 235.80 71.99 246.03 C 59.79 246.52 47.60 247.75 35.38 247.65 C 43.23 247.01 51.03 245.82 58.84 244.83 Z" />
</g>
<g id="#12467dff">
<path fill="#12467d" opacity="1.00" d=" M 728.42 168.35 C 745.59 166.39 762.76 164.35 779.94 162.40 C 788.70 161.92 797.57 162.46 806.15 164.37 C 813.90 165.92 820.47 170.64 826.67 175.29 C 920.78 253.81 1014.97 332.24 1109.08 410.76 C 1113.12 414.41 1117.43 417.80 1121.21 421.72 C 1130.34 432.27 1132.16 448.33 1125.85 460.74 C 1123.34 465.98 1119.17 470.10 1115.27 474.30 C 1095.62 494.64 1075.94 514.96 1056.30 535.31 C 1046.77 546.13 1033.26 552.52 1019.60 556.41 C 1006.41 560.07 992.68 561.77 979.00 561.50 C 950.97 561.36 922.92 561.78 894.91 561.29 C 909.71 560.50 924.61 558.62 938.60 553.49 C 948.87 549.77 958.75 544.34 966.34 536.36 C 984.99 517.02 1003.68 497.72 1022.36 478.40 C 1026.64 473.95 1031.03 469.55 1034.71 464.57 C 1042.61 453.44 1043.04 437.70 1035.94 426.07 C 1032.38 419.80 1026.15 415.85 1021.01 411.04 C 932.87 337.51 844.66 264.06 756.49 190.56 C 747.19 183.08 738.53 174.76 728.42 168.35 Z" />
<path fill="#12467d" opacity="1.00" d=" M 73.03 304.17 C 75.26 293.97 77.49 283.78 79.75 273.59 C 119.84 273.58 159.94 273.59 200.03 273.58 C 212.69 273.61 225.66 277.25 235.52 285.43 C 247.82 295.52 255.55 311.04 255.75 327.00 C 256.22 337.18 253.42 347.06 251.43 356.95 C 249.24 367.32 247.05 377.68 244.86 388.05 C 243.00 396.53 241.66 405.19 238.30 413.25 C 229.86 434.16 212.63 450.76 192.72 460.86 C 181.36 466.53 168.66 469.52 155.95 469.34 C 142.55 469.33 129.15 469.32 115.76 469.34 C 109.15 500.06 102.60 530.79 95.97 561.50 C 75.64 561.50 55.31 561.50 34.98 561.50 C 53.55 475.72 72.18 389.95 90.77 304.18 C 84.86 304.16 78.94 304.18 73.03 304.17 M 151.61 304.17 C 141.84 349.13 132.13 394.11 122.39 439.08 C 129.26 439.06 136.13 439.14 143.00 439.05 C 156.28 438.59 168.02 429.83 175.05 418.98 C 179.40 412.42 180.32 404.47 182.05 396.98 C 186.59 376.02 191.18 355.07 195.69 334.11 C 197.35 326.60 195.53 318.34 190.37 312.56 C 185.91 307.19 178.96 304.34 172.06 304.22 C 165.24 304.09 158.42 304.21 151.61 304.17 Z" />
<path fill="#12467d" opacity="1.00" d=" M 318.15 290.18 C 344.19 275.62 375.05 271.11 404.46 274.73 C 418.81 276.64 433.23 281.17 444.78 290.17 C 451.36 295.29 456.49 302.52 458.26 310.75 C 460.22 319.48 458.73 328.58 455.88 336.94 C 452.49 347.16 450.13 357.68 447.41 368.09 C 435.80 413.55 424.23 459.01 412.58 504.45 C 411.91 507.37 411.36 510.97 413.60 513.37 C 416.17 515.88 420.01 515.85 423.35 516.19 C 419.93 531.36 416.16 546.44 412.32 561.50 C 402.20 561.50 392.09 561.51 381.97 561.50 C 371.77 561.37 360.87 559.79 352.67 553.22 C 349.10 550.57 347.26 546.23 346.72 541.93 C 345.78 534.73 347.06 527.47 348.71 520.48 C 353.57 501.32 358.43 482.17 363.27 463.01 C 345.33 463.00 327.38 462.98 309.44 463.02 C 300.98 495.85 292.56 528.70 284.01 561.51 C 264.22 561.48 244.43 561.52 224.65 561.49 C 242.90 490.36 261.16 419.24 279.42 348.11 C 281.46 341.06 283.75 334.07 285.83 327.03 C 291.08 310.99 303.53 298.16 318.15 290.18 M 341.13 340.00 C 332.77 372.53 324.38 405.05 316.03 437.58 C 333.97 437.59 351.90 437.57 369.83 437.59 C 378.35 404.58 386.81 371.55 395.28 338.52 C 396.96 332.11 395.91 324.68 391.22 319.76 C 386.42 314.59 378.87 313.31 372.13 313.75 C 357.51 314.50 344.69 326.01 341.13 340.00 Z" />
<path fill="#12467d" opacity="1.00" d=" M 601.06 273.58 C 620.93 273.59 640.80 273.58 660.67 273.59 C 641.08 350.74 621.49 427.89 601.87 505.03 C 598.03 520.20 589.72 534.73 576.61 543.70 C 559.98 554.87 540.05 561.03 520.04 561.49 C 488.73 561.51 457.42 561.50 426.11 561.50 C 429.92 546.42 433.77 531.34 437.58 516.26 C 461.06 516.24 484.54 516.25 508.02 516.26 C 517.94 516.47 528.51 513.99 535.78 506.84 C 542.35 500.67 545.29 491.88 547.57 483.41 C 565.41 413.47 583.20 343.52 601.06 273.58 Z" />
</g>
<g id="#3a393cf5">
<path fill="#3a393c" opacity="0.96" d=" M 487.88 599.86 C 492.45 593.77 501.15 592.76 507.99 594.97 C 512.19 596.29 514.92 600.21 515.91 604.35 C 513.61 604.82 511.32 605.27 509.02 605.69 C 506.88 598.10 495.17 598.41 492.51 605.39 C 490.60 610.87 490.76 618.51 495.97 622.17 C 500.08 624.85 505.35 623.39 509.14 620.84 C 509.12 619.34 509.12 617.84 509.13 616.36 C 506.52 616.34 503.92 616.33 501.31 616.34 C 501.28 614.42 501.31 612.50 501.42 610.59 C 506.36 610.72 511.30 610.62 516.25 610.67 C 516.04 615.31 516.71 620.09 515.94 624.65 C 508.54 630.71 496.21 632.02 489.00 624.99 C 482.91 618.29 482.59 607.12 487.88 599.86 Z" />
<path fill="#3a393c" opacity="0.96" d=" M 600.14 595.14 C 605.83 593.20 612.94 593.25 617.81 597.17 C 620.01 598.98 621.12 601.68 621.91 604.35 C 619.61 604.82 617.31 605.27 615.02 605.69 C 612.88 598.10 601.18 598.41 598.52 605.38 C 596.61 610.84 596.76 618.43 601.89 622.11 C 606.00 624.86 611.32 623.41 615.14 620.84 C 615.12 619.34 615.12 617.84 615.13 616.35 C 612.52 616.34 609.92 616.33 607.32 616.34 C 607.31 614.44 607.31 612.55 607.32 610.66 C 612.30 610.65 617.27 610.64 622.25 610.67 C 622.30 615.19 622.17 619.72 622.34 624.24 C 615.16 630.59 602.90 632.06 595.44 625.42 C 587.10 617.12 588.58 599.83 600.14 595.14 Z" />
<path fill="#3a393c" opacity="0.96" d=" M 1002.25 594.27 C 1008.58 593.07 1015.97 594.76 1019.75 600.35 C 1023.70 606.37 1023.81 614.51 1021.10 621.04 C 1016.46 631.58 1000.00 632.72 993.18 623.88 C 989.51 619.12 989.17 612.68 990.10 606.97 C 991.06 600.81 995.95 595.22 1002.25 594.27 M 1003.33 600.49 C 998.47 601.89 996.63 607.42 996.92 612.01 C 996.72 616.39 998.60 621.40 1003.00 623.03 C 1007.26 624.72 1012.63 622.73 1014.43 618.42 C 1016.12 614.07 1016.16 608.94 1014.24 604.66 C 1012.34 600.72 1007.33 599.16 1003.33 600.49 Z" />
<path fill="#3a393c" opacity="0.96" d=" M 1072.43 594.53 C 1078.71 593.01 1086.25 594.19 1090.44 599.53 C 1095.02 605.40 1095.17 613.92 1092.59 620.67 C 1088.43 630.93 1073.23 632.67 1065.71 625.25 C 1061.00 620.52 1060.35 613.21 1061.43 606.94 C 1062.38 601.20 1066.65 595.89 1072.43 594.53 M 1074.46 600.55 C 1070.88 601.68 1068.77 605.30 1068.42 608.88 C 1067.92 613.17 1068.22 618.28 1071.67 621.37 C 1075.35 624.84 1082.03 624.20 1084.87 619.97 C 1087.46 615.90 1087.50 610.57 1086.15 606.06 C 1084.80 601.22 1079.01 598.86 1074.46 600.55 Z" />
<path fill="#3a393c" opacity="0.96" d=" M 35.39 628.99 C 35.41 617.55 35.37 606.10 35.41 594.66 C 41.91 594.87 48.48 594.15 54.92 595.17 C 63.31 597.46 64.06 610.80 56.54 614.63 C 52.17 616.78 47.11 615.75 42.42 616.02 C 42.43 620.34 42.44 624.67 42.42 629.00 C 40.08 629.00 37.74 629.00 35.39 628.99 M 42.44 600.34 C 42.42 603.66 42.42 606.99 42.44 610.32 C 45.53 610.18 48.74 610.55 51.73 609.64 C 55.22 608.23 55.34 602.57 51.90 601.05 C 48.87 600.01 45.58 600.51 42.44 600.34 Z" />
<path fill="#3a393c" opacity="0.96" d=" M 67.06 594.67 C 75.54 594.64 84.03 594.65 92.51 594.66 C 92.51 596.55 92.51 598.44 92.52 600.34 C 86.38 600.35 80.24 600.34 74.10 600.34 C 74.08 602.89 74.08 605.44 74.08 607.99 C 79.78 608.00 85.47 608.00 91.16 608.00 C 91.17 609.89 91.17 611.78 91.17 613.68 C 85.48 613.71 79.79 613.67 74.09 613.70 C 74.08 616.89 74.08 620.10 74.09 623.30 C 80.42 623.32 86.75 623.30 93.07 623.31 C 93.08 625.20 93.08 627.10 93.09 629.00 C 84.41 629.00 75.73 629.01 67.05 629.00 C 67.05 617.55 67.04 606.11 67.06 594.67 Z" />
<path fill="#3a393c" opacity="0.96" d=" M 99.06 594.67 C 106.05 594.85 113.10 594.19 120.06 595.09 C 127.07 596.13 129.35 605.95 124.78 610.81 C 123.24 612.57 120.89 613.17 118.77 613.91 C 123.87 617.78 126.45 623.79 129.91 628.99 C 127.05 629.02 124.18 629.05 121.32 628.89 C 118.71 624.81 116.12 620.70 113.19 616.85 C 111.60 614.50 108.56 614.81 106.10 614.64 C 106.07 619.43 106.10 624.21 106.08 629.00 C 103.74 629.00 101.39 629.00 99.05 629.00 C 99.05 617.55 99.04 606.11 99.06 594.67 M 106.10 600.33 C 106.08 603.22 106.08 606.10 106.09 609.00 C 109.70 608.93 113.35 609.15 116.94 608.61 C 120.71 607.91 120.97 601.70 117.24 600.73 C 113.58 600.08 109.81 600.49 106.10 600.33 Z" />
<path fill="#3a393c" opacity="0.96" d=" M 133.39 629.00 C 133.40 617.55 133.37 606.10 133.41 594.66 C 140.52 594.97 147.77 593.93 154.77 595.34 C 161.51 597.30 162.46 607.60 156.07 610.64 C 157.85 611.60 159.79 612.54 160.86 614.37 C 164.28 619.76 160.59 628.17 154.05 628.74 C 147.18 629.30 140.28 628.87 133.39 629.00 M 140.44 600.34 C 140.42 602.99 140.42 605.65 140.44 608.31 C 143.94 608.20 147.48 608.49 150.95 607.93 C 154.40 607.14 154.56 601.45 151.03 600.67 C 147.52 600.18 143.96 600.48 140.44 600.34 M 140.44 614.00 C 140.42 617.10 140.42 620.20 140.44 623.30 C 144.26 623.23 148.12 623.51 151.92 622.94 C 155.71 622.08 155.93 616.01 152.36 614.70 C 148.50 613.61 144.40 614.17 140.44 614.00 Z" />
<path fill="#3a393c" opacity="0.96" d=" M 164.26 629.00 C 168.75 617.55 173.20 606.08 177.73 594.65 C 180.07 594.64 182.42 594.65 184.77 594.68 C 189.37 606.13 194.02 617.55 198.62 629.00 C 196.10 628.99 193.58 629.00 191.06 629.01 C 190.07 626.44 189.06 623.88 188.04 621.34 C 183.52 621.35 179.01 621.32 174.49 621.36 C 173.57 623.90 172.64 626.44 171.72 628.99 C 169.23 629.00 166.74 629.00 164.26 629.00 M 176.68 615.65 C 179.74 615.65 182.80 615.65 185.87 615.66 C 184.32 611.51 182.74 607.37 181.18 603.23 C 179.67 607.36 178.05 611.46 176.68 615.65 Z" />
<path fill="#3a393c" opacity="0.96" d=" M 202.06 594.67 C 207.35 594.70 212.65 594.53 217.94 594.74 C 221.87 594.79 225.66 596.86 227.79 600.17 C 230.98 605.04 231.19 611.23 230.41 616.82 C 229.59 622.35 225.74 627.74 219.95 628.66 C 214.02 629.40 208.01 628.82 202.05 629.00 C 202.05 617.55 202.04 606.11 202.06 594.67 M 209.11 600.32 C 209.06 607.98 209.09 615.64 209.09 623.31 C 213.56 622.99 220.21 624.66 222.39 619.43 C 223.91 614.52 224.14 608.80 222.12 604.01 C 219.59 599.27 213.50 600.66 209.11 600.32 Z" />
<path fill="#3a393c" opacity="0.96" d=" M 233.25 628.99 C 237.77 617.55 242.20 606.08 246.73 594.65 C 249.07 594.64 251.42 594.65 253.76 594.68 C 258.37 606.12 263.02 617.55 267.62 629.00 C 265.10 628.99 262.58 629.00 260.07 629.00 C 259.07 626.51 258.06 624.02 257.21 621.48 C 252.65 621.18 248.07 621.40 243.50 621.36 C 242.57 623.90 241.63 626.44 240.72 629.00 C 238.22 629.00 235.74 629.00 233.25 628.99 M 245.68 615.65 C 248.74 615.65 251.80 615.65 254.87 615.66 C 253.32 611.52 251.76 607.39 250.18 603.26 C 248.65 607.38 247.05 611.47 245.68 615.65 Z" />
<path fill="#3a393c" opacity="0.96" d=" M 271.14 594.67 C 273.41 594.65 275.69 594.65 277.97 594.66 C 282.61 602.21 287.17 609.81 291.82 617.36 C 291.84 609.79 291.81 602.23 291.83 594.66 C 294.00 594.65 296.16 594.65 298.33 594.66 C 298.35 606.11 298.35 617.55 298.34 629.00 C 295.98 629.00 293.62 629.00 291.27 629.00 C 286.74 621.64 282.26 614.24 277.70 606.90 C 277.68 614.26 277.69 621.63 277.70 628.99 C 275.51 629.00 273.32 629.00 271.13 628.99 C 271.14 617.55 271.13 606.11 271.14 594.67 Z" />
<path fill="#3a393c" opacity="0.96" d=" M 315.34 594.68 C 317.69 594.65 320.04 594.64 322.39 594.65 C 327.05 606.09 331.67 617.54 336.28 629.00 C 333.80 628.99 331.32 628.99 328.85 629.07 C 327.68 626.54 326.74 623.92 325.74 621.34 C 321.23 621.34 316.72 621.35 312.21 621.33 C 311.25 623.81 310.32 626.31 309.53 628.86 C 307.00 629.04 304.45 629.03 301.92 628.99 C 306.40 617.56 310.90 606.13 315.34 594.68 M 318.80 603.32 C 317.28 607.43 315.77 611.54 314.28 615.66 C 317.36 615.66 320.44 615.66 323.52 615.64 C 321.97 611.52 320.49 607.38 318.80 603.32 Z" />
<path fill="#3a393c" opacity="0.96" d=" M 339.83 594.66 C 342.11 594.64 344.39 594.65 346.68 594.68 C 351.27 602.23 355.83 609.80 360.49 617.32 C 360.48 609.77 360.47 602.21 360.49 594.66 C 362.66 594.65 364.83 594.65 367.00 594.66 C 367.00 606.11 367.00 617.55 367.00 629.00 C 364.65 628.99 362.31 629.00 359.96 629.01 C 355.39 621.64 350.92 614.21 346.34 606.85 C 346.34 614.23 346.35 621.62 346.34 629.00 C 344.16 628.99 342.00 629.00 339.83 629.00 C 339.82 617.55 339.82 606.11 339.83 594.66 Z" />
<path fill="#3a393c" opacity="0.96" d=" M 387.40 629.00 C 387.40 617.55 387.37 606.10 387.41 594.66 C 393.91 594.87 400.49 594.14 406.94 595.17 C 415.31 597.48 416.05 610.80 408.54 614.63 C 404.17 616.78 399.11 615.75 394.42 616.01 C 394.43 620.34 394.44 624.67 394.42 629.00 C 392.08 629.00 389.73 629.00 387.40 629.00 M 394.44 600.34 C 394.42 603.66 394.42 606.99 394.44 610.32 C 397.52 610.19 400.71 610.54 403.71 609.65 C 407.21 608.26 407.36 602.56 403.89 601.05 C 400.86 600.02 397.58 600.51 394.44 600.34 Z" />
<path fill="#3a393c" opacity="0.96" d=" M 419.06 594.67 C 427.54 594.64 436.03 594.65 444.51 594.66 C 444.51 596.55 444.51 598.44 444.51 600.34 C 438.37 600.35 432.24 600.34 426.10 600.34 C 426.08 602.89 426.07 605.44 426.08 607.99 C 431.78 608.00 437.47 608.00 443.17 608.00 C 443.17 609.88 443.17 611.77 443.17 613.67 C 437.48 613.71 431.78 613.67 426.09 613.70 C 426.08 616.90 426.08 620.10 426.09 623.30 C 432.42 623.32 438.74 623.30 445.07 623.31 C 445.07 625.20 445.08 627.10 445.09 629.00 C 436.41 628.99 427.73 629.01 419.05 629.00 C 419.05 617.55 419.04 606.11 419.06 594.67 Z" />
<path fill="#3a393c" opacity="0.96" d=" M 451.14 594.67 C 453.41 594.65 455.68 594.64 457.96 594.65 C 462.61 602.20 467.17 609.81 471.82 617.36 C 471.84 609.79 471.81 602.23 471.83 594.66 C 474.00 594.65 476.16 594.65 478.33 594.66 C 478.35 606.11 478.35 617.55 478.34 629.00 C 475.97 629.00 473.62 629.00 471.26 629.00 C 466.74 621.63 462.26 614.24 457.70 606.91 C 457.68 614.27 457.69 621.63 457.70 628.99 C 455.50 629.00 453.32 629.00 451.14 629.00 C 451.14 617.55 451.13 606.11 451.14 594.67 Z" />
<path fill="#3a393c" opacity="0.96" d=" M 518.92 628.99 C 523.48 617.54 527.80 605.99 532.49 594.60 C 534.79 594.64 537.09 594.66 539.40 594.66 C 544.05 606.10 548.67 617.55 553.29 629.00 C 550.77 628.99 548.26 629.00 545.75 629.02 C 544.72 626.46 543.72 623.90 542.73 621.34 C 538.22 621.34 533.72 621.35 529.21 621.33 C 528.25 623.80 527.32 626.29 526.56 628.84 C 524.01 629.06 521.46 629.03 518.92 628.99 M 535.81 603.31 C 534.29 607.42 532.77 611.53 531.28 615.66 C 534.36 615.66 537.44 615.66 540.52 615.63 C 538.97 611.51 537.48 607.37 535.81 603.31 Z" />
<path fill="#3a393c" opacity="0.96" d=" M 556.84 594.66 C 559.11 594.64 561.39 594.65 563.68 594.68 C 568.27 602.23 572.83 609.80 577.48 617.32 C 577.48 609.77 577.47 602.21 577.49 594.66 C 579.65 594.65 581.83 594.65 584.00 594.66 C 584.00 606.11 584.00 617.55 584.00 629.00 C 581.65 628.99 579.30 629.00 576.96 629.01 C 572.39 621.64 567.92 614.21 563.34 606.85 C 563.34 614.23 563.35 621.62 563.34 629.00 C 561.16 628.99 559.00 629.00 556.83 629.00 C 556.82 617.55 556.81 606.11 556.84 594.66 Z" />
<path fill="#3a393c" opacity="0.96" d=" M 628.48 629.00 C 628.49 617.55 628.46 606.10 628.50 594.66 C 630.83 594.65 633.17 594.65 635.51 594.66 C 635.53 599.72 635.52 604.78 635.51 609.84 C 640.13 604.81 644.70 599.75 649.28 594.70 C 652.44 594.63 655.59 594.63 658.76 594.67 C 654.49 599.19 650.13 603.63 645.87 608.15 C 650.35 615.11 654.91 622.03 659.39 629.00 C 656.33 629.00 653.28 629.00 650.24 629.00 C 647.14 623.70 644.05 618.41 640.93 613.13 C 639.12 615.01 637.31 616.90 635.51 618.79 C 635.52 622.18 635.52 625.59 635.52 629.00 C 633.17 629.00 630.82 629.00 628.48 629.00 Z" />
<path fill="#3a393c" opacity="0.96" d=" M 662.67 594.66 C 665.03 594.64 667.40 594.65 669.77 594.67 C 669.91 602.79 669.50 610.93 669.98 619.05 C 670.60 623.92 677.13 625.24 680.75 622.83 C 682.99 621.32 682.86 618.34 682.97 615.96 C 683.03 608.86 682.98 601.76 683.00 594.66 C 685.33 594.65 687.66 594.65 690.00 594.66 C 689.99 601.77 690.02 608.88 690.00 615.99 C 689.92 619.71 689.64 623.98 686.68 626.64 C 682.74 630.19 677.01 630.00 672.09 629.40 C 667.43 628.77 663.31 624.87 663.05 620.07 C 662.28 611.63 662.80 603.13 662.67 594.66 Z" />
<path fill="#3a393c" opacity="0.96" d=" M 694.66 594.67 C 703.73 594.65 712.80 594.64 721.87 594.67 C 721.86 596.56 721.84 598.47 721.79 600.38 C 718.45 600.32 715.12 600.33 711.79 600.36 C 711.76 609.90 711.78 619.44 711.78 628.99 C 709.43 629.00 707.08 629.00 704.75 629.00 C 704.72 619.45 704.75 609.90 704.73 600.35 C 701.37 600.34 698.01 600.34 694.66 600.33 C 694.65 598.44 694.65 596.55 694.66 594.67 Z" />
<path fill="#3a393c" opacity="0.96" d=" M 719.26 629.00 C 723.75 617.55 728.20 606.08 732.73 594.65 C 735.07 594.64 737.41 594.65 739.76 594.68 C 744.37 606.12 749.02 617.55 753.62 629.00 C 751.09 629.00 748.57 629.00 746.06 629.01 C 745.03 626.41 744.10 623.78 742.89 621.27 C 738.43 621.42 733.96 621.30 729.50 621.36 C 728.57 623.90 727.63 626.44 726.72 628.99 C 724.22 629.00 721.74 629.00 719.26 629.00 M 731.63 615.65 C 734.70 615.65 737.78 615.66 740.87 615.66 C 739.33 611.56 737.80 607.47 736.23 603.39 C 734.50 607.40 733.13 611.55 731.63 615.65 Z" />
<path fill="#3a393c" opacity="0.96" d=" M 757.14 594.67 C 759.41 594.65 761.68 594.65 763.97 594.66 C 768.61 602.21 773.17 609.81 777.82 617.36 C 777.84 609.79 777.80 602.23 777.84 594.66 C 779.99 594.65 782.16 594.65 784.33 594.66 C 784.35 606.11 784.35 617.55 784.34 629.00 C 781.97 629.00 779.62 629.00 777.27 629.00 C 772.74 621.64 768.26 614.24 763.70 606.91 C 763.68 614.27 763.69 621.63 763.69 628.99 C 761.50 629.00 759.31 629.00 757.13 629.00 C 757.14 617.55 757.13 606.11 757.14 594.67 Z" />
<path fill="#3a393c" opacity="0.96" d=" M 813.07 594.65 C 815.39 594.65 817.72 594.65 820.06 594.66 C 824.73 606.09 829.32 617.55 833.96 629.00 C 831.42 629.00 828.90 629.00 826.37 628.99 C 825.39 626.44 824.39 623.90 823.42 621.36 C 818.86 621.37 814.30 621.24 809.75 621.44 C 808.91 623.98 807.96 626.49 807.01 629.01 C 804.53 629.00 802.06 628.99 799.60 629.00 C 804.07 617.54 808.54 606.08 813.07 594.65 M 816.50 603.22 C 814.99 607.36 813.43 611.50 811.95 615.66 C 815.03 615.66 818.11 615.65 821.19 615.65 C 819.65 611.49 818.08 607.35 816.50 603.22 Z" />
<path fill="#3a393c" opacity="0.96" d=" M 831.44 594.67 C 833.80 594.66 836.16 594.64 838.54 594.62 C 840.36 602.37 841.99 610.18 843.67 617.97 C 845.78 610.21 847.76 602.42 849.87 594.66 C 852.63 594.65 855.39 594.65 858.16 594.66 C 860.19 602.50 862.05 610.39 864.12 618.23 C 865.85 610.38 867.55 602.53 869.23 594.68 C 871.58 594.65 873.93 594.64 876.30 594.67 C 873.60 606.12 870.84 617.56 868.08 629.00 C 865.61 628.99 863.13 628.99 860.67 629.04 C 858.29 620.63 856.22 612.13 853.87 603.71 C 851.61 612.13 849.43 620.57 847.18 629.00 C 844.60 629.03 842.02 629.03 839.46 628.89 C 836.95 617.44 834.05 606.09 831.44 594.67 Z" />
<path fill="#3a393c" opacity="0.96" d=" M 887.06 594.65 C 889.39 594.65 891.72 594.65 894.06 594.66 C 898.73 606.09 903.33 617.55 907.96 629.00 C 905.42 629.00 902.89 629.00 900.37 628.99 C 899.39 626.45 898.39 623.91 897.42 621.36 C 892.86 621.37 888.30 621.23 883.74 621.45 C 882.91 623.99 881.95 626.50 881.01 629.01 C 878.53 629.00 876.06 628.99 873.60 629.00 C 878.07 617.54 882.54 606.09 887.06 594.65 M 885.95 615.66 C 889.03 615.66 892.11 615.65 895.19 615.65 C 893.65 611.50 892.08 607.36 890.50 603.23 C 888.97 607.37 887.43 611.50 885.95 615.66 Z" />
<path fill="#3a393c" opacity="0.96" d=" M 911.30 628.99 C 911.34 617.54 911.25 606.09 911.35 594.65 C 914.82 594.65 918.30 594.64 921.78 594.68 C 923.77 602.39 925.85 610.09 927.86 617.80 C 929.92 610.10 931.88 602.37 933.95 594.66 C 937.43 594.65 940.92 594.64 944.42 594.67 C 944.44 606.11 944.43 617.56 944.42 629.00 C 942.25 628.99 940.09 629.00 937.93 629.00 C 937.80 620.22 937.84 611.43 937.71 602.65 C 935.51 611.42 933.41 620.23 931.22 629.01 C 928.94 629.00 926.67 629.00 924.41 628.98 C 922.43 620.28 920.02 611.67 918.24 602.92 C 917.68 611.59 917.94 620.30 917.87 629.00 C 915.67 629.00 913.48 629.00 911.30 628.99 Z" />
<path fill="#3a393c" opacity="0.96" d=" M 976.75 594.67 C 979.04 594.65 981.34 594.64 983.65 594.64 C 983.70 602.75 983.75 610.87 983.63 618.98 C 983.63 622.98 981.67 627.21 977.78 628.76 C 973.44 630.35 967.69 630.29 964.35 626.68 C 962.24 624.41 961.87 621.21 961.67 618.27 C 963.84 618.05 966.03 617.84 968.22 617.64 C 968.37 620.35 969.54 624.17 973.04 623.58 C 975.64 623.76 976.63 621.04 976.63 618.90 C 976.89 610.82 976.65 602.74 976.75 594.67 Z" />
<path fill="#3a393c" opacity="0.96" d=" M 1028.06 594.67 C 1030.39 594.65 1032.73 594.65 1035.08 594.66 C 1035.15 599.24 1034.94 603.82 1035.21 608.40 C 1039.62 608.22 1044.04 608.35 1048.47 608.29 C 1048.49 603.75 1048.46 599.20 1048.49 594.66 C 1050.82 594.65 1053.15 594.65 1055.50 594.66 C 1055.54 606.10 1055.50 617.54 1055.52 628.99 C 1053.20 628.98 1050.88 629.00 1048.58 629.07 C 1048.34 624.05 1048.54 619.03 1048.48 614.01 C 1044.01 614.00 1039.54 614.00 1035.08 614.01 C 1035.08 619.00 1035.09 624.00 1035.08 629.00 C 1032.73 629.00 1030.38 629.00 1028.05 628.99 C 1028.05 617.55 1028.04 606.11 1028.06 594.67 Z" />
<path fill="#3a393c" opacity="0.96" d=" M 1099.40 629.00 C 1099.40 617.55 1099.37 606.10 1099.41 594.66 C 1106.57 594.91 1113.82 594.07 1120.92 595.21 C 1127.90 596.71 1129.67 606.99 1124.48 611.41 C 1122.92 612.83 1120.79 613.28 1118.86 613.93 C 1124.27 617.52 1126.71 623.81 1130.24 629.00 C 1127.44 629.00 1124.65 629.00 1121.87 629.01 C 1118.95 624.93 1116.45 620.55 1113.32 616.63 C 1111.71 614.46 1108.80 614.84 1106.45 614.65 C 1106.40 619.43 1106.44 624.22 1106.42 629.00 C 1104.07 629.00 1101.73 629.00 1099.40 629.00 M 1106.44 600.34 C 1106.42 603.22 1106.42 606.10 1106.42 608.99 C 1110.15 608.90 1113.94 609.22 1117.63 608.51 C 1121.14 607.48 1121.10 601.55 1117.49 600.69 C 1113.83 600.13 1110.11 600.46 1106.44 600.34 Z" />
</g>
</svg>
